<?xml version="1.0" standalone="no"?>
<!DOCTYPE svg PUBLIC "-//W3C//DTD SVG 20010904//EN"
 "http://www.w3.org/TR/2001/REC-SVG-20010904/DTD/svg10.dtd">
<svg version="1.0" xmlns="http://www.w3.org/2000/svg"
 width="260.000000pt" height="90.000000pt" viewBox="0 0 500 500"
 preserveAspectRatio="xMidYMid meet">

<g transform="translate(0.000000,350.000000) scale(0.100000,-0.100000)"
fill="#000000" stroke="none">
<path d="M2190 1095 l0 -1095 1405 0 1405 0 0 1095 0 1095 -1405 0 -1405 0 0
-1095z m682 595 c43 -160 58 -232 58 -282 0 -65 -1 -68 -24 -68 -22 0 -27 9
-51 88 -15 48 -54 172 -86 277 -32 104 -59 194 -59 198 0 4 24 7 52 5 l53 -3
57 -215z m310 215 c3 -3 -36 -131 -86 -285 -83 -258 -92 -280 -113 -280 -22 0
-23 4 -23 70 0 56 12 113 56 268 31 108 61 205 66 215 6 12 21 17 52 17 23 0
45 -2 48 -5z m368 -280 l0 -285 -45 0 -45 0 0 285 0 285 45 0 45 0 0 -285z
m390 0 l0 -285 -45 0 -45 0 0 285 0 285 45 0 45 0 0 -285z m318 -2 l2 -283
-49 0 -49 0 -97 170 -96 170 3 82 3 83 45 -78 c25 -42 66 -114 92 -160 l48
-82 0 186 c0 102 3 189 7 193 4 4 25 6 48 4 l40 -3 3 -282z m-1583 -848 l0
-30 -82 -3 -83 -3 0 -249 0 -250 -50 0 -50 0 0 250 0 250 -85 0 -85 0 0 28 c0
16 3 32 7 36 4 3 102 5 217 4 l211 -3 0 -30z m529 26 c6 -9 196 -552 196 -558
0 -2 -22 -3 -48 -3 l-48 0 -59 173 c-32 94 -65 188 -73 207 l-14 35 -72 -205
-72 -205 -47 -3 c-26 -2 -47 1 -47 6 0 10 162 473 184 526 14 33 18 36 55 36
22 0 42 -4 45 -9z m666 -28 c-1 -32 -6 -41 -33 -58 -52 -32 -72 -85 -72 -190
0 -107 25 -174 74 -203 25 -13 31 -24 31 -49 0 -22 -5 -33 -14 -33 -50 0 -124
57 -156 121 -44 85 -44 243 -1 328 31 58 108 120 154 121 13 0 17 -8 17 -37z
m155 7 l36 -22 -27 -29 c-31 -32 -46 -36 -63 -15 -6 7 -25 16 -41 20 -27 5
-30 10 -30 42 l0 37 44 -5 c24 -3 61 -16 81 -28z m445 -255 l0 -285 -50 0 -50
0 0 278 c0 153 3 282 7 285 3 4 26 7 50 7 l43 0 0 -285z m260 245 l0 -40 -115
0 -115 0 0 40 0 40 115 0 115 0 0 -40z m-25 -245 l0 -30 -102 -3 -103 -3 0 36
0 36 103 -3 102 -3 0 -30z m-615 -103 c0 -100 -2 -110 -23 -130 -31 -29 -89
-52 -132 -52 -35 0 -36 1 -33 32 2 24 9 34 23 36 68 10 65 6 65 87 l0 75 -45
0 c-43 0 -45 1 -45 30 l0 30 95 0 95 0 0 -108z m-870 -28 c6 -14 10 -27 10
-30 0 -2 -31 -4 -70 -4 -38 0 -70 3 -70 8 0 4 3 17 6 30 6 19 13 22 60 22 49
0 55 -2 64 -26z m1510 -119 l0 -35 -115 0 -115 0 0 35 0 35 115 0 115 0 0 -35z"/>
<path d="M60 1095 l0 -1035 1035 0 1035 0 0 1035 0 1035 -1035 0 -1035 0 0
-1035z m1868 999 c19 -13 22 -24 22 -80 l0 -65 -92 3 -93 3 -3 57 c-4 76 16
98 91 98 31 0 61 -6 75 -16z m-975 -14 c72 -26 241 -28 334 -4 l64 16 67 -35
c37 -19 91 -42 120 -52 39 -12 52 -21 52 -36 0 -10 -1 -19 -2 -19 -2 0 -39 14
-83 30 -44 16 -85 30 -91 30 -6 0 -25 -22 -42 -49 -82 -126 -232 -175 -374
-122 -43 17 -71 37 -116 86 -33 35 -63 73 -66 83 -6 19 -9 19 -79 -8 -40 -16
-119 -41 -176 -56 -116 -31 -152 -57 -172 -124 -10 -34 -9 -43 7 -67 l19 -28
3 33 c4 36 16 40 50 16 38 -26 43 -55 31 -167 -13 -111 -1 -315 26 -454 38
-195 167 -502 271 -643 50 -68 56 -85 18 -49 -62 58 -163 239 -225 404 l-33
89 -13 -44 c-7 -25 -13 -79 -13 -120 0 -41 -1 -100 -1 -130 0 -131 18 -438 27
-472 4 -15 17 -18 72 -18 39 0 111 -11 172 -26 128 -32 284 -42 384 -24 39 7
129 34 201 61 71 27 147 52 168 56 34 5 39 4 36 -12 -3 -13 -19 -22 -54 -30
-27 -7 -86 -27 -130 -45 -137 -55 -213 -70 -359 -70 -106 0 -150 5 -231 25
-68 17 -128 25 -187 25 -108 0 -107 -1 -119 164 -5 67 -11 133 -13 148 -3 14
-1 41 5 60 7 25 6 45 -8 85 -14 45 -15 61 -6 110 7 32 9 81 6 108 -3 32 1 70
11 105 16 54 16 55 -5 71 -13 10 -52 19 -98 23 -42 3 -111 18 -155 32 l-79 27
6 91 c3 65 17 131 46 231 22 77 41 154 41 170 0 17 7 43 15 59 8 15 15 36 15
45 0 9 6 26 14 37 8 11 21 46 29 77 20 74 61 143 99 167 17 10 69 28 116 40
90 22 213 68 272 100 45 24 63 24 133 0z m997 -205 c0 -20 -13 -32 -66 -62
l-66 -38 66 -3 c58 -3 66 -5 66 -23 0 -18 -6 -20 -92 -17 -91 3 -93 4 -96 28
-2 22 7 30 69 65 l72 40 -72 3 c-54 2 -71 6 -71 17 0 12 18 15 95 15 94 0 95
0 95 -25z m-2 -212 c-2 -11 -28 -27 -66 -42 -34 -13 -62 -28 -62 -32 0 -4 14
-12 30 -18 27 -9 30 -8 30 10 0 10 7 19 15 19 9 0 15 -9 15 -25 0 -14 8 -29
20 -35 22 -12 27 -40 8 -40 -7 1 -49 16 -93 34 -67 27 -80 36 -80 55 0 19 13
28 80 56 92 39 108 42 103 18z m2 -233 c0 -17 -7 -20 -40 -20 l-40 0 0 -40 0
-40 40 0 c33 0 40 -3 40 -20 0 -19 -7 -20 -95 -20 -88 0 -95 1 -95 20 0 17 7
20 40 20 40 0 40 0 40 39 0 39 -1 40 -37 43 -27 2 -39 8 -41 21 -3 15 6 17 92
17 89 0 96 -1 96 -20z m-12 -207 c6 -9 12 -42 12 -74 0 -67 -3 -69 -95 -69
-92 0 -95 2 -95 69 0 64 6 76 40 90 36 15 122 5 138 -16z m10 -214 c3 -22 -6
-30 -69 -65 l-72 -39 71 -3 c56 -2 72 -6 72 -18 0 -12 -16 -14 -92 -12 -91 3
-93 4 -93 27 0 19 13 31 65 60 l65 36 -67 3 c-60 3 -68 5 -68 23 0 18 6 20 93
17 90 -3 92 -3 95 -29z m-1235 -147 c98 -169 252 -344 385 -439 70 -50 69 -74
-1 -27 -73 49 -269 255 -333 349 -55 81 -114 184 -114 200 0 17 23 -13 63 -83z
m831 -138 c-56 -156 -97 -249 -114 -259 -9 -6 -12 -4 -7 6 3 8 23 55 45 104
22 50 57 142 78 205 22 67 40 106 42 94 2 -12 -18 -79 -44 -150z m390 80 c11
-10 16 -34 16 -69 0 -67 -20 -85 -95 -85 -75 0 -95 18 -95 85 0 72 14 85 95
85 44 0 68 -5 79 -16z m-395 -307 c-72 -127 -100 -170 -106 -164 -2 3 29 65
71 138 42 73 77 137 77 143 1 6 3 3 6 -7 3 -10 -18 -58 -48 -110z m261 52 l5
-54 50 0 50 0 5 52 c6 56 12 69 29 58 17 -10 13 -111 -5 -129 -22 -22 -136
-22 -158 0 -16 16 -23 114 -9 128 16 16 28 -4 33 -55z m-210 -103 c0 -17 -75
-103 -103 -117 -20 -11 -20 -11 2 16 24 32 95 113 99 114 1 1 2 -5 2 -13z
m-885 -94 c50 -21 114 -47 143 -56 54 -18 73 -41 25 -30 -23 5 -187 74 -295
124 -40 19 -35 33 5 16 17 -8 73 -32 122 -54z m1090 -17 c0 -56 -3 -70 -15
-70 -12 0 -16 16 -18 73 -3 66 -1 73 15 70 15 -3 18 -14 18 -73z m75 19 c0
-47 3 -55 18 -52 13 2 18 15 20 56 3 44 6 52 23 52 17 0 19 -7 19 -59 0 -62
-7 -74 -52 -85 -49 -11 -58 -1 -58 75 0 55 3 69 15 69 12 0 15 -13 15 -56z
m68 -146 c7 -7 12 -39 12 -76 0 -55 -2 -63 -17 -60 -14 2 -19 15 -21 56 -3 44
-6 52 -23 52 -16 0 -19 -7 -19 -49 0 -53 -8 -61 -59 -61 -40 0 -51 18 -51 82
0 51 2 58 20 58 17 0 20 -7 20 -50 0 -43 3 -50 20 -50 17 0 20 7 20 43 0 51
13 67 55 67 17 0 36 -5 43 -12z"/>
<path d="M1800 2025 l0 -45 55 0 55 0 0 45 0 45 -55 0 -55 0 0 -45z"/>
<path d="M849 2051 l-23 -18 27 -45 c56 -96 150 -151 257 -152 101 -1 176 39
241 128 32 43 37 71 13 80 -10 4 -33 -13 -69 -49 -57 -59 -141 -105 -190 -105
-66 1 -172 77 -211 152 -17 33 -16 33 -45 9z"/>
<path d="M929 2021 c29 -41 88 -54 216 -49 104 3 105 4 138 37 23 24 26 32 12
26 -11 -4 -77 -10 -147 -13 -101 -3 -138 -1 -177 12 -65 21 -66 21 -42 -13z"/>
<path d="M1035 1928 c43 -20 107 -18 150 4 21 11 9 13 -83 14 l-107 0 40 -18z"/>
<path d="M436 1736 c-4 -20 -12 -36 -19 -36 -7 0 4 -15 23 -32 l35 -32 3 48
c3 38 -1 54 -16 69 -19 19 -20 18 -26 -17z"/>
<path d="M346 1690 c-9 -16 -16 -37 -16 -47 0 -11 -7 -28 -15 -39 -8 -10 -15
-30 -15 -44 0 -14 -6 -48 -14 -75 -54 -197 -67 -246 -75 -288 l-9 -49 43 -18
c24 -10 46 -23 49 -29 9 -14 11 -14 -46 4 -41 12 -48 12 -48 0 0 -22 149 -65
224 -65 44 0 67 -5 76 -15 17 -20 44 -20 36 1 -37 95 -66 312 -66 486 l0 98
-54 54 -53 54 -17 -28z"/>
<path d="M1807 1203 c-4 -3 -7 -24 -7 -45 l0 -38 55 0 55 0 0 45 0 45 -48 0
c-27 0 -52 -3 -55 -7z"/>
<path d="M1807 784 c-4 -4 -7 -27 -7 -51 l0 -43 56 0 55 0 -3 48 -3 47 -45 3
c-25 2 -49 0 -53 -4z"/>
</g>
</svg>
